<svg xmlns="http://www.w3.org/2000/svg" viewBox="0 0 960 640">
  <defs>
    <filter id="paper"><feTurbulence baseFrequency=".04" numOctaves="4" seed="9"/><feColorMatrix values=".35 0 0 0 .18 0 .3 0 0 .12 0 0 .23 0 .07 0 0 0 .28 0"/></filter>
    <linearGradient id="wood" x2="0" y2="1"><stop stop-color="#3b2818"/><stop offset="1" stop-color="#160e09"/></linearGradient>
  </defs>
  <rect width="960" height="640" rx="34" fill="url(#wood)" stroke="#a1783f" stroke-width="8"/>
  <rect x="36" y="36" width="888" height="568" rx="18" fill="#c3a474" opacity=".84"/>
  <rect x="36" y="36" width="888" height="568" rx="18" filter="url(#paper)" opacity=".48"/>
  <path d="M197 232l80-72 106-8 62-48 94 26 61 67 82 27 48 72-27 62 48 48-65 29-37 69-86-4-58 42-71-34-87 16-40-65-77-28 22-70-38-61z" fill="#7c6746" opacity=".42" stroke="#4f3e29" stroke-width="5" stroke-linejoin="round"/>
  <path d="M276 160l37 96 70-104 24 99 38-147 17 157 77-131-25 150 86-83-48 119 130-92-98 133 118-61-99 121 100-59-84 96-106-4-58 42-71-34-87 16-40-65-77-28 98-45-60-84 115 31z" fill="none" stroke="#473824" stroke-width="2" opacity=".36"/>
</svg>
